# xmcd CD database file
#
# Track frame offsets:
#	150
#	22497
#	49334
#	79513
#	105645
#	130727
#	155969
#	199089
#
# Disc length: 2909 seconds
#
# Revision: 0
# Processed by: cddbd v1.5.2PL0 Copyright (c) Steve Scherf et al.
# Submitted via: CDex 1.50
#
DISCID=6e0b5b08
DTITLE=BRESLIN Paul - Rikitikitak
DYEAR=1992
DGENRE=Blues
TTITLE0=Lord Fauntleroy
TTITLE1=Fast Asleep
TTITLE2=Itchy Ya Ya
TTITLE3=Gold
TTITLE4=She's Mine
TTITLE5=I'm In Love
TTITLE6=Rikitikitak
TTITLE7=Miles Away
EXTD=YEAR: 1992
EXTT0=
EXTT1=
EXTT2=
EXTT3=
EXTT4=
EXTT5=
EXTT6=
EXTT7=
PLAYORDER=
